<?xml version="1.0" encoding="utf-8"?>
<!-- Generator: Adobe Illustrator 23.0.2, SVG Export Plug-In . SVG Version: 6.00 Build 0)  -->
<svg version="1.1"
	 id="svg3311" inkscape:version="0.43" sodipodi:docbase="/home/sjoerd0/Desktop/totaalpc/pictogrammen" sodipodi:docname="16.svg" sodipodi:version="0.32" xmlns:cc="http://web.resource.org/cc/" xmlns:dc="http://purl.org/dc/elements/1.1/" xmlns:inkscape="http://www.inkscape.org/namespaces/inkscape" xmlns:rdf="http://www.w3.org/1999/02/22-rdf-syntax-ns#" xmlns:sodipodi="http://inkscape.sourceforge.net/DTD/sodipodi-0.dtd" xmlns:svg="http://www.w3.org/2000/svg"
	 xmlns="http://www.w3.org/2000/svg" xmlns:xlink="http://www.w3.org/1999/xlink" x="0px" y="0px" viewBox="0 0 699.2 700.3"
	 style="enable-background:new 0 0 699.2 700.3;" xml:space="preserve">
<sodipodi:namedview  bordercolor="#666666" borderopacity="1.0" id="base" inkscape:current-layer="layer14" inkscape:cx="694.81141" inkscape:cy="191.48028" inkscape:pageopacity="0.0" inkscape:pageshadow="2" inkscape:window-height="946" inkscape:window-width="1264" inkscape:window-x="0" inkscape:window-y="0" inkscape:zoom="0.35539095" pagecolor="#ffffff">
	</sodipodi:namedview>
<g id="layer14" inkscape:groupmode="layer" inkscape:label="Vector">
	<path id="path3323" d="M347.3,4C157.3,5.2,3.5,159.8,3.5,350.1c0,191,155,346.1,346.1,346.1s346.1-155,346.1-346.1S540.6,4,349.6,4
		C348.8,4,348.1,4,347.3,4z M198.7,134.9h63.7v413.6h-80.8V199.4h-51.3V159L198.7,134.9z M369.8,134.9h137.3l43.3,45.5v76.1h-82.1
		v-52.7h-59.7v120.4l24.3-24.4h72.1l45.3,44.5v160.9l-42.9,43.3H370.8L328,505.2V180.4L369.8,134.9z M408.6,368.9v109.4h59.7V368.9
		H408.6z"/>
</g>
</svg>
