<?xml version="1.0" encoding="utf-8"?>
<!-- Generator: Adobe Illustrator 23.0.2, SVG Export Plug-In . SVG Version: 6.00 Build 0)  -->
<svg version="1.1"
	 id="svg1412" inkscape:version="0.43" sodipodi:docbase="/home/sjoerd0/Desktop/totaalpc/pictogrammen" sodipodi:docname="geweld.svg" sodipodi:version="0.32" xmlns:cc="http://web.resource.org/cc/" xmlns:dc="http://purl.org/dc/elements/1.1/" xmlns:inkscape="http://www.inkscape.org/namespaces/inkscape" xmlns:rdf="http://www.w3.org/1999/02/22-rdf-syntax-ns#" xmlns:sodipodi="http://inkscape.sourceforge.net/DTD/sodipodi-0.dtd" xmlns:svg="http://www.w3.org/2000/svg"
	 xmlns="http://www.w3.org/2000/svg" xmlns:xlink="http://www.w3.org/1999/xlink" x="0px" y="0px" viewBox="0 0 671 671.3"
	 style="enable-background:new 0 0 671 671.3;" xml:space="preserve">
<sodipodi:namedview  bordercolor="#666666" borderopacity="1.0" id="base" inkscape:current-layer="layer2" inkscape:cx="498.90248" inkscape:cy="502.20209" inkscape:pageopacity="0.0" inkscape:pageshadow="2" inkscape:window-height="946" inkscape:window-width="1264" inkscape:window-x="0" inkscape:window-y="0" inkscape:zoom="0.50259871" pagecolor="#ffffff">
	</sodipodi:namedview>
<g id="layer2" inkscape:groupmode="layer" inkscape:label="Vector">
	<path id="path2297" d="M333.4,3C151.1,4.2,3.5,152.5,3.5,335c0,183.3,148.7,332,332,332s332-148.8,332-332S518.8,3,335.5,3
		C334.8,3,334.1,3,333.4,3z M383.2,64.9c0.1,0,0.2,0,0.3,0c9.3-0.3,14.4,8.1,15.2,20.4c1.5,21,4.2,106.2,4.2,106.2
		s94.3-14.1,130.2-19s42.2,30.3,29.5,45c-10.2,11.9-85.1,113.2-85.1,113.2s86.5,44.3,102.7,52.1s17.6,28.8,2.8,39.4
		c-10.3,7.4-92.2,52.8-92.2,52.8s9.2,72.5,10.6,87.9c1.4,15.5-4.9,21.8-17.6,17.6s-69.7-25.3-79.5-28.1s-4.2-17.6,4.9-15.5
		c8.9,2.1,60.1,7.5,61.9,7.1c0,0,0,0,0,0c0,0-12.7-73.2-10.6-80.9s72.5-54.2,72.5-54.2s-92.9-64.7-94.3-73.9
		c-1.4-9.1,70.3-114,70.3-114s-123.8,3.5-129.4-0.7s-18.3-93.6-18.3-93.6s-43.8,30.6-56.3,39.4s-21.7,19.2-40.2,4.9
		c-18.5-14.2-49.8-41.5-49.8-41.5s-8.5,49.8-11.2,70.3c-1.4,10.3-18.3,15.3-18.4-10.2c-0.1-25.6,0.1-84.3,0.1-91
		c0-10.9,8.6-27.5,30.1-9.8s67,61.1,67,61.1s53.1-49.8,77.4-72.2C369.5,69.1,377.2,65.2,383.2,64.9z M270.6,209.8c0.2,0,0.3,0,0.5,0
		c13.1-0.1,24.3,3.7,31.2,9.9c16.6,14.8,29.5,37.9-1.9,71.6c-14.3-12.5-30.1-23.4-45.4-34.2c-13.4-8.3-27.8-15.4-42.8-20.4
		c0.3-0.3,0.5-0.5,0.8-0.8c19-18.2,39.7-25.6,57.1-26.1C270.3,209.8,270.5,209.8,270.6,209.8z M168.6,253.2c0.5,0,0.9,0,1.4,0
		c29.2,0,58.8,14.6,83.8,31.9c41.5,28.8,80.2,68.2,63.3,92.2c-16.9,23.9-76,2.1-102-12.7s-45-40.8-52.8-44.3
		c-7.7-3.5-17.6,16.9-16.9,28.2s33,41.5,73.8,53.5c-1.4,47.8,41.5,71,80.2,59.8c-27.4,50.6,2.1,80.2,34.5,80.9
		c-31.7,42.2-95,29-113.9,18.3s-50.6-47.1-33.1-97.1c-5.6,2.8-73.9,13.3-102-31s-11.7-119.3,28.8-156.9
		C131,260,149.7,253.5,168.6,253.2z M359,284.7c0.2,0,0.3,0,0.5,0c0.2,0,0.4,0,0.6,0c14.2-0.2,26.4,6.5,37.2,20.1
		c26.2,33-6.3,73.9-38,98.5c-31,24.1-74.6,52-102.7,21.1c-6-6.6-9.4-13.5-10.9-20.5c24.8,8,53.3,12.5,77.3,0.2
		c23.1-13.8,29.1-48.1,13.6-69.8c-6.3-11.4-14.1-21.5-23-30.7C330.7,291.6,345.8,285.2,359,284.7z M403.2,408.5c0.1,0,0.3,0,0.4,0
		c13.7-0.4,25,7.1,31.7,18.7c9.8,16.9,5.6,41.5-23.2,64.7c-28.8,23.2-69.2,37.3-87.2,7c-15.5-26,35.5-71.7,58.4-84.4
		C390.2,410.7,397,408.8,403.2,408.5z"/>
</g>
</svg>
