<?xml version="1.0" encoding="utf-8"?>
<!-- Generator: Adobe Illustrator 23.0.2, SVG Export Plug-In . SVG Version: 6.00 Build 0)  -->
<svg version="1.1"
	 id="svg2490" inkscape:version="0.43" sodipodi:docbase="/home/sjoerd0/Desktop/totaalpc/pictogrammen" sodipodi:docname="6.svg" sodipodi:version="0.32" xmlns:cc="http://web.resource.org/cc/" xmlns:dc="http://purl.org/dc/elements/1.1/" xmlns:inkscape="http://www.inkscape.org/namespaces/inkscape" xmlns:rdf="http://www.w3.org/1999/02/22-rdf-syntax-ns#" xmlns:sodipodi="http://inkscape.sourceforge.net/DTD/sodipodi-0.dtd" xmlns:svg="http://www.w3.org/2000/svg"
	 xmlns="http://www.w3.org/2000/svg" xmlns:xlink="http://www.w3.org/1999/xlink" x="0px" y="0px" viewBox="0 0 665.4 667.3"
	 style="enable-background:new 0 0 665.4 667.3;" xml:space="preserve">
<sodipodi:namedview  bordercolor="#666666" borderopacity="1.0" id="base" inkscape:current-layer="layer4" inkscape:cx="1368.9233" inkscape:cy="405.61791" inkscape:pageopacity="0.0" inkscape:pageshadow="2" inkscape:window-height="946" inkscape:window-width="1264" inkscape:window-x="0" inkscape:window-y="0" inkscape:zoom="0.25129935" pagecolor="#ffffff">
	</sodipodi:namedview>
<g id="layer4" inkscape:groupmode="layer" inkscape:label="Vector">
	<path id="path2502" d="M330.6,4.4C149.8,5.6,3.5,152.6,3.5,333.6c0,181.7,147.5,329.2,329.2,329.2s329.2-147.5,329.2-329.2
		S514.5,4.4,332.7,4.4C332,4.4,331.3,4.4,330.6,4.4z M264.7,132h134.8l41,41v79.8h-78.8v-52.7H304v117.4l22.4-22.4h71.1l43,42.5
		v159.9l-40.7,40.2H264.7l-39.5-40.2V173L264.7,132z M304,361.3v108.4h57.7V361.3H304z"/>
</g>
</svg>
