<?xml version="1.0" encoding="utf-8"?>
<!-- Generator: Adobe Illustrator 23.0.2, SVG Export Plug-In . SVG Version: 6.00 Build 0)  -->
<svg version="1.1"
	 id="svg3151" inkscape:version="0.43" sodipodi:docbase="/home/sjoerd0/Desktop/totaalpc/pictogrammen" sodipodi:docname="12.svg" sodipodi:version="0.32" xmlns:cc="http://web.resource.org/cc/" xmlns:dc="http://purl.org/dc/elements/1.1/" xmlns:inkscape="http://www.inkscape.org/namespaces/inkscape" xmlns:rdf="http://www.w3.org/1999/02/22-rdf-syntax-ns#" xmlns:sodipodi="http://inkscape.sourceforge.net/DTD/sodipodi-0.dtd" xmlns:svg="http://www.w3.org/2000/svg"
	 xmlns="http://www.w3.org/2000/svg" xmlns:xlink="http://www.w3.org/1999/xlink" x="0px" y="0px" viewBox="0 0 623 629.3"
	 style="enable-background:new 0 0 623 629.3;" xml:space="preserve">
<sodipodi:namedview  bordercolor="#666666" borderopacity="1.0" id="base" inkscape:current-layer="layer12" inkscape:cx="440.30935" inkscape:cy="680.2051" inkscape:pageopacity="0.0" inkscape:pageshadow="2" inkscape:window-height="946" inkscape:window-width="1264" inkscape:window-x="0" inkscape:window-y="0" inkscape:zoom="0.35539095" pagecolor="#ffffff">
	</sodipodi:namedview>
<g id="layer12" inkscape:groupmode="layer" inkscape:label="Vector">
	<path id="path3165" d="M307.5,9.3C140.8,11.5,6.2,147.4,6.2,314.6c0,168.5,136.8,305.3,305.3,305.3s305.3-136.8,305.3-305.3
		S480,9.3,311.5,9.3C310.2,9.3,308.9,9.3,307.5,9.3z M172.9,126.8h57.7V501h-73.2V185.2H111v-36.6L172.9,126.8z M320.6,126.8h125.9
		l38.7,39.4v130.2L357.9,402.6v31.7h127.3V501H284V370.2l128.8-108.3v-71.1h-54.2v48.5H284v-73.2L320.6,126.8z"/>
</g>
</svg>
