<?xml version="1.0" encoding="utf-8"?>
<!-- Generator: Adobe Illustrator 23.0.2, SVG Export Plug-In . SVG Version: 6.00 Build 0)  -->
<svg version="1.1"
	 id="svg3139" inkscape:version="0.43" sodipodi:docbase="/home/sjoerd0/Desktop/totaalpc/pictogrammen" sodipodi:docname="eng.svg" sodipodi:version="0.32" xmlns:cc="http://web.resource.org/cc/" xmlns:dc="http://purl.org/dc/elements/1.1/" xmlns:inkscape="http://www.inkscape.org/namespaces/inkscape" xmlns:rdf="http://www.w3.org/1999/02/22-rdf-syntax-ns#" xmlns:sodipodi="http://inkscape.sourceforge.net/DTD/sodipodi-0.dtd" xmlns:svg="http://www.w3.org/2000/svg"
	 xmlns="http://www.w3.org/2000/svg" xmlns:xlink="http://www.w3.org/1999/xlink" x="0px" y="0px" viewBox="0 0 706.3 706.3"
	 style="enable-background:new 0 0 706.3 706.3;" xml:space="preserve">
<sodipodi:namedview  bordercolor="#666666" borderopacity="1.0" id="base" inkscape:current-layer="layer4" inkscape:cx="267.67243" inkscape:cy="561.86405" inkscape:guide-bbox="true" inkscape:pageopacity="0.0" inkscape:pageshadow="2" inkscape:window-height="946" inkscape:window-width="1264" inkscape:window-x="0" inkscape:window-y="0" inkscape:zoom="0.71078191" pagecolor="#ffffff" showguides="true">
	</sodipodi:namedview>
<g id="layer4" inkscape:groupmode="layer" inkscape:label="Vector">
	<path id="path3183" d="M350.9,0C157,1.2,0,159,0,353.1c0,194.9,158.2,353.1,353.1,353.1c194.9,0,353.2-158.2,353.2-353.1
		S548.1,0,353.1,0C352.4,0,351.6,0,350.9,0z M283.1,63.4c0.1,0,0.1,0,0.2,0c0.5,0,1,0,1.4,0c0.1,0,0.3,0,0.4,0c0,0,0,0,0,0
		c0,0,0,0,0,0c0,0,0,0,0,0c7.7,0.5,6.2,5.1,5.1,11.3c-1,6.2-67.8,113-72.4,126.4c-4.6,13.4,4.1,89.6,10.3,97.9
		c5,6.7,104.4,54.5,106.6,48c2.2-6.5-63.7-58.1-62.7-80.8c0.9-20.5,14.3-59.7,30.8-83.3c16.1-23.2,35.6-43.6,49.9-45.4h0.8
		c14.3,1.7,33.8,22.2,49.9,45.4c16.4,23.6,29.8,62.8,30.8,83.3c1,22.7-64.9,74.4-62.7,80.8c2.2,6.5,101.6-41.3,106.6-48
		c6.2-8.3,14.9-84.5,10.3-97.9c-4.6-13.4-71.4-120.2-72.4-126.4c-1-6.2-2.6-10.8,5.1-11.3c0,0,0,0,0,0c0,0,0,0,0,0c0,0,0,0,0,0
		c0.1,0,0.3,0,0.4,0c8-0.3,28.2,5.5,43.2,18c16,13.4,62.2,79.1,67.8,106.9c5.7,27.8-13,116.2-30.3,132.5
		c-17.2,16.2-120.7,40.3-120,47.5c0.7,6.8,98.2-4.4,117.2-9.7c18.2-5.2,65-36.2,72.7-48.5c6-9.6,26.7-119.2,29.3-123.8
		c1.2-2.2,2.6-4,4.2-4.2c0,0,0,0,0,0c0,0,0.1,0,0.1,0c0,0,0,0,0,0c1.6,0,3.4,1.7,5.4,6.3c4.1,9.2,17.5,32.4,18,61.7
		c0.5,29.3-13.9,77.1-21.6,86.8c-8.1,10.3-83.2,44.7-97.1,48.3c-14,3.6-123,0.7-123.6,8.1c-0.5,7.3,75.5,17.1,97.4,23.3
		c18.3,5.2,70.2,38.7,78.1,51.9c9.2,15.4,18,81.2,9.2,96.6c-8.7,15.4-23.1,22.1-27.7,10.3c-4.6-11.8-15.4-85.8-19.5-92
		c-4.1-6.2-38-33.9-54.5-41.6c-16.4-7.7-86.7-31.5-89.1-25.7c-1.9,4.6,66.7,46.5,76.8,62.7c10.3,16.4,19.5,58,18.5,77
		c-1,19.1-35.9,75.5-49.3,82.7c-14.4,7.7-24.5,6.2-22.6-10.3c1.7-14.4,27.2-65.3,28.8-76.6c1.5-10.7-0.2-49-5.1-60.4
		c-5-11.6-41.5-52.6-48.2-51c-5,1.2,2.9,43.8-7.1,43.8c-10,0-9.3-44.4-19.4-44.7c-9.1,0.3-9.4,44.7-19.4,44.7
		c-10,0-2.1-42.6-7.1-43.8c-6.7-1.6-43.1,39.4-48.2,51c-4.9,11.4-6.6,49.7-5.1,60.4c1.5,11.3,27.1,62.2,28.8,76.6
		c2,16.5-8.2,18-22.6,10.3c-13.5-7.2-48.3-63.6-49.3-82.7c-1-19,8.2-60.6,18.5-77c10.1-16.2,78.7-58.1,76.8-62.7
		c-2.4-5.8-72.7,18-89.1,25.7c-16.4,7.7-50.4,35.4-54.5,41.6c-4.1,6.2-14.9,80.1-19.5,92s-19,5.1-27.7-10.3s0-81.2,9.2-96.6
		c7.9-13.2,59.8-46.7,78.1-51.9c21.8-6.2,97.9-15.9,97.4-23.3c-0.5-7.4-109.6-4.4-123.6-8.1c-13.9-3.6-89-38-97.1-48.3
		C91,327,76.6,279.3,77.1,250c0.5-29.3,13.9-52.4,18-61.7c2-4.6,3.8-6.3,5.4-6.3c0,0,0,0,0,0c0,0,0.1,0,0.1,0c0,0,0,0,0,0
		c1.5,0.2,2.9,2,4.2,4.2c2.6,4.6,23.3,114.3,29.3,123.8c7.7,12.3,54.5,43.4,72.7,48.5c19,5.4,116.5,16.6,117.2,9.7
		c0.7-7.3-102.8-31.3-120-47.5c-17.3-16.3-36-104.8-30.3-132.5c5.7-27.7,51.8-93.5,67.8-106.9C255.6,69.7,274.2,63.9,283.1,63.4z"/>
</g>
</svg>
