<?xml version="1.0" encoding="utf-8"?>
<!-- Generator: Adobe Illustrator 23.0.2, SVG Export Plug-In . SVG Version: 6.00 Build 0)  -->
<svg version="1.1"
	 id="svg2670" inkscape:version="0.43" sodipodi:docbase="/home/sjoerd0/Desktop/totaalpc/pictogrammen" sodipodi:docname="groftaalgebruik.svg" sodipodi:version="0.32" xmlns:cc="http://web.resource.org/cc/" xmlns:dc="http://purl.org/dc/elements/1.1/" xmlns:inkscape="http://www.inkscape.org/namespaces/inkscape" xmlns:rdf="http://www.w3.org/1999/02/22-rdf-syntax-ns#" xmlns:sodipodi="http://inkscape.sourceforge.net/DTD/sodipodi-0.dtd" xmlns:svg="http://www.w3.org/2000/svg"
	 xmlns="http://www.w3.org/2000/svg" xmlns:xlink="http://www.w3.org/1999/xlink" x="0px" y="0px" viewBox="0 0 666.5 670.3"
	 style="enable-background:new 0 0 666.5 670.3;" xml:space="preserve">
<sodipodi:namedview  bordercolor="#666666" borderopacity="1.0" id="base" inkscape:current-layer="layer4" inkscape:cx="438.48689" inkscape:cy="525.62018" inkscape:pageopacity="0.0" inkscape:pageshadow="2" inkscape:window-height="946" inkscape:window-width="1264" inkscape:window-x="0" inkscape:window-y="0" inkscape:zoom="0.71078191" pagecolor="#ffffff">
	</sodipodi:namedview>
<g id="layer4" inkscape:groupmode="layer" inkscape:label="Vector">
	<path id="path2682" d="M330.5,4.5C149,5.7,2,153.3,2,335.1c0,182.5,148.1,330.6,330.6,330.6s330.6-148.1,330.6-330.6
		S515.1,4.5,332.6,4.5C331.9,4.5,331.2,4.5,330.5,4.5z M207.9,115c26.2-0.2,29.1,22.8,35.4,36.1c6.7,14.1,9.1,23.6,16.5,23.6
		c5.6,0,30.9-25.1,42.2-25.3c9.5-0.2,28.6,18.7,39.3,29.8c13.8,14.2,10,21,2.5,18c-7.2-2.9-32.7-21.9-42.9-21.5
		c-8.1,0.4-42.1,43-55.2,38.7c-16-5.2-21.1-55.2-36.2-60.8c-15.1-5.6-37.3,25.7-52.4,25.3c-15-0.3-21-26.6-15.5-36.2
		c9.8-17.1,31.5-24.5,61.9-27.4c1.2-0.1,2.3-0.2,3.4-0.2C207.3,115.1,207.6,115,207.9,115z M486,118.6c0.3,0,0.7,0,1.1,0
		c15.7-0.1,31.9,5.4,46.2,19.1c51,48.6,1,139.3-30.8,175.1c-17.8,20-45.8,28.8-46.8,43.8s21.4,19,25.9,36.8
		c4,15.9-20.9,49.7-25.9,83.6c-3.5,24.1,19.9,105.5,5,111.4s-48.7-90.5-66.7-86.6s-3,110.4-16.9,115.4s-32.8-39.8-42.8-118.4
		s11.9-122.4,29.8-136.3c13.5-10.5,41.8-1,49.8-21.9c5.8-15.4-34.6-23.8-20-70.3c1.2,3.9,28.2,39.5,55.8,41.5
		c27.9,2,50.8-36.6,51.7-64.7c1-30.8-12.9-72.6-80.6-86.6C429.3,139.3,456.5,119.2,486,118.6z M372,231c0.1,0,0.2,0,0.3,0
		c9-0.3,11,8.5-1.1,13.4c-21,8.5-72.9,27.1-75.6,30.5c-7.4,9.4-13.4,97.6-29.8,104.5c-24.7,10.4-78.6-50.8-89.6-45.8
		c-10.9,5-16.8,97.1-39.8,121.4c-14.3,15.1-46.7,23.8-59.9-4.7c-13.5-29.2,10.7-45.6,25.1-50.2c27.3-8.7,27-114.6,51.8-122.2
		c26.7-8.3,87.4,62.8,97.5,56.7c10.5-6.3,17.9-73.6,27.3-81.2c8.2-6.7,81.3-20.2,91.9-22.1C370.7,231.2,371.4,231.1,372,231z
		 M394,270C394,270,394,270,394,270C394,270,394,270,394,270c0,0.1,0,0.1,0,0.2c0,0,0,0,0-0.1C393.9,270.1,393.9,270.1,394,270
		C393.9,270.1,394,270,394,270C394,270,394,270,394,270z"/>
</g>
</svg>
