<?xml version="1.0" encoding="utf-8"?>
<!-- Generator: Adobe Illustrator 23.0.2, SVG Export Plug-In . SVG Version: 6.00 Build 0)  -->
<svg version="1.1"
	 id="svg1454" inkscape:version="0.43" sodipodi:docbase="/home/sjoerd0/Desktop/totaalpc/pictogrammen" sodipodi:docname="seks.svg" sodipodi:version="0.32" xmlns:cc="http://web.resource.org/cc/" xmlns:dc="http://purl.org/dc/elements/1.1/" xmlns:inkscape="http://www.inkscape.org/namespaces/inkscape" xmlns:rdf="http://www.w3.org/1999/02/22-rdf-syntax-ns#" xmlns:sodipodi="http://inkscape.sourceforge.net/DTD/sodipodi-0.dtd" xmlns:svg="http://www.w3.org/2000/svg"
	 xmlns="http://www.w3.org/2000/svg" xmlns:xlink="http://www.w3.org/1999/xlink" x="0px" y="0px" viewBox="0 0 680.6 689.2"
	 style="enable-background:new 0 0 680.6 689.2;" xml:space="preserve">
<sodipodi:namedview  bordercolor="#666666" borderopacity="1.0" id="base" inkscape:current-layer="layer2" inkscape:cx="733.33843" inkscape:cy="640.54886" inkscape:guide-bbox="true" inkscape:pageopacity="0.0" inkscape:pageshadow="2" inkscape:window-height="946" inkscape:window-width="1264" inkscape:window-x="0" inkscape:window-y="0" inkscape:zoom="0.50259871" pagecolor="#ffffff" showguides="true">
	</sodipodi:namedview>
<g id="layer2" inkscape:groupmode="layer" inkscape:label="Vector">
	<path id="path2339" d="M338.1,9.8C154.3,10.9,5.5,160.5,5.5,344.6c0,184.8,150,334.8,334.8,334.8s334.8-150,334.8-334.8
		S525.1,9.8,340.3,9.8C339.6,9.8,338.9,9.8,338.1,9.8z M294,128.7C294,128.7,294,128.7,294,128.7C294.1,128.7,294.1,128.7,294,128.7
		c0.1,0,0.1,0,0.1,0c0,0,0,0,0,0c0,0,0,0,0,0c0.1,0,0.1,0,0.2,0c19.5-0.5,35.5,24.4,20.4,50.2c-11.1,19-28.5,10.7-47.8,55.2
		c-16.1,37.2,3,59.2,11.4,70.1c8.5,10.9,33.3,28.4,33.3,53.7c0,25.4-19.4,31.3-38.3,31.8c-18.9,0.5-45.3-14.9-60.2-38.3
		c-13.9-21.9,7.9-85.6,21.4-128.8c11.4-36.8,22.9-63.3,38.3-82.1C279.6,132.6,287,129,294,128.7C294,128.7,294,128.7,294,128.7
		C294,128.7,294,128.7,294,128.7C294,128.7,294,128.7,294,128.7z M384.6,128.7C384.6,128.7,384.6,128.7,384.6,128.7
		C384.6,128.7,384.6,128.7,384.6,128.7C384.7,128.7,384.7,128.7,384.6,128.7c0.1,0,0.1,0,0.1,0c0,0,0,0,0,0c0,0,0,0,0,0
		c0.1,0,0.2,0,0.3,0c7.4-0.2,15.5,3.3,22.5,11.9c15.4,18.8,26.8,45.3,38.3,82.1c13.4,43.3,35.3,107,21.4,128.8
		c-14.9,23.4-41.3,38.8-60.2,38.3c-18.9-0.5-38.3-6.5-38.3-31.8c0-25.4,24.9-42.8,33.3-53.7c8.5-10.9,27.5-32.9,11.4-70.1
		c-19.3-44.5-36.7-36.2-47.8-55.2C351.1,153.8,365.8,129.7,384.6,128.7C384.5,128.7,384.6,128.7,384.6,128.7
		C384.6,128.7,384.6,128.7,384.6,128.7z M129.8,268.8c0.1,0,0.3,0,0.4,0c0,0,0.1,0,0.1,0c9,0,19.1,8.5,19.6,28.1
		s-5.9,32.6-11.4,32.6c-8.2,0-19.7-23.2-22.9-38.3C112.7,277.3,122.4,269.2,129.8,268.8z M549.2,268.8c0.1,0,0.2,0,0.2,0
		c0.1,0,0.1,0,0.2,0c0.2,0,0.4,0,0.5,0c0,0,0.1,0,0.1,0c7.5,0,17.7,8.2,14.7,22.4c-3.2,15.1-14.7,38.3-22.9,38.3
		c-5.5,0-12-12.9-11.5-32.6C531.1,278,540.5,269.4,549.2,268.8z M96.7,297.3c4.7-0.2,9.5,3.8,12.2,10.1c3.2,7.4,4.5,25.1-2.2,27.4
		c-4.5,1.3-8.6-1-12.1-4.8c2.2,6.2,3.6,13.8,1.1,16c-3.9,3.6-9.3,0.4-13.3-3c2.3,3.9,4.3,9.2,2.1,14.4c-4.5,5-13.8,1.8-17.4-2.2
		c-4.3-4.7-8.7-11.3-2-18.9c3-3.4,7.1-2.6,10.4-0.7c-3.3-4.9-6.4-13-0.2-18.7c5.2-4.7,8.9-3.2,11.8-0.1c-1.8-6-1.3-14,6-18.3
		c1.1-0.6,2.2-1,3.4-1.1C96.6,297.4,96.7,297.3,96.7,297.3z M582.6,297.3C582.6,297.3,582.7,297.3,582.6,297.3c0.1,0,0.1,0,0.1,0
		c0,0,0.1,0,0.1,0c0,0,0,0,0,0c0,0,0.1,0,0.1,0c0.1,0,0.1,0,0.2,0c0.3,0,0.7,0,1,0c1.1,0.1,2.3,0.5,3.4,1.1c7.3,4.3,7.8,12.2,6,18.3
		c2.9-3.2,6.6-4.7,11.8,0.1c6.2,5.7,3,13.8-0.2,18.7c3.3-1.9,7.5-2.7,10.4,0.7c6.7,7.6,2.3,14.2-2,18.9c-3.7,4-12.9,7.2-17.4,2.2
		c-2.3-5.3-0.2-10.6,2.1-14.4c-4,3.4-9.4,6.6-13.3,3c-2.5-2.1-1.1-9.7,1.1-16c-3.5,3.9-7.6,6.2-12.1,4.8c-6.7-2.2-5.4-19.9-2.2-27.4
		C574.2,301.7,578.4,297.8,582.6,297.3z M135.6,342.4c0.1,0,0.1,0,0.2,0c0.1,0,0.2,0,0.3,0c11.5-0.3,21.2,6,28.1,19.1
		c10.4,20-26.5,59.7-30.8,82.6c-4.7,24.5,10,38.8,19.4,49.8s30.4,12,43.8,14.4c13.4,2.5,20.9,17.4,21.4,23.9
		c0.5,6.5,0.5,27.8-22.4,28.3c-22.9,0.5-54.2-46.3-75.6-78.6c0,0,0,0,0,0c-0.8-1.4-27-42.4-33.3-68.1c-6.5-26.4,3.3-47.8,24.9-62.2
		C120.1,345.9,128.2,342.8,135.6,342.4z M541.6,342.4c0,0,0.1,0,0.1,0c0,0,0.1,0,0.1,0c0.1,0,0.2,0,0.2,0c0.1,0,0.2,0,0.2,0
		c0.1,0,0.2,0,0.4,0c8-0.3,16.9,2.8,26.4,9.2c21.5,14.4,31.3,35.8,24.9,62.2c-6.4,26-33,67.3-33.3,68.2
		c-21.4,32.3-52.7,79.1-75.6,78.6c-22.9-0.5-22.9-21.9-22.4-28.3c0.5-6.5,7.9-21.4,21.4-23.9c13.4-2.5,34.3-3.5,43.8-14.4
		c9.5-10.9,24.1-25.3,19.4-49.8c-4.4-22.9-41.2-62.6-30.8-82.6C522.7,349.6,531.4,343.2,541.6,342.4z M460.1,380.1
		C460.1,380.1,460.1,380.1,460.1,380.1C460.1,380.1,460.1,380.1,460.1,380.1c0.1,0,0.1,0,0.1,0c0,0,0.1,0,0.1,0c0,0,0.1,0,0.1,0
		c0,0,0,0,0,0c0.2,0,0.4,0,0.6,0c5.4,0.3,12.6,5.8,15.7,13.1c3.9,9.1,3.2,16.9-2.8,21.8c-4.4,2.9-8,2-10.9-0.2
		c1.9,8.4,0.9,16.8-6.3,21.4c-6.3,3-10.4,1-13.2-2.8c0.3,7.2-1.1,14.7-8.2,17.2c-14.1,6.3-17.5-12-19-19.7c-1.7-8.5,0-26.7,7.8-29.6
		c4.3-1.6,9,2.5,12.5,7.6c-0.1-6.9,1-13.8,4.7-16c4.1-2.5,9.2,0.1,13.2,4.5c-0.8-6.5-0.4-14.4,3-16.4
		C458.2,380.5,459,380.2,460.1,380.1C460,380.2,460.1,380.2,460.1,380.1C460.1,380.2,460.1,380.2,460.1,380.1
		C460.1,380.2,460.1,380.1,460.1,380.1z M219,380.2C219,380.2,219,380.2,219,380.2C219,380.2,219.1,380.2,219,380.2
		c0.1,0,0.1,0,0.1,0c0,0,0,0,0,0c0,0,0,0,0.1,0c0,0,0,0,0,0c0,0,0,0,0,0c0,0,0,0,0.1,0c0,0,0,0,0,0c0,0,0,0,0,0c0,0,0,0,0.1,0
		c0,0,0,0,0,0c0,0,0,0,0,0c0,0,0,0,0.1,0c0,0,0,0,0,0c1.4-0.1,2.6,0.2,3.7,0.8c3.4,2,3.7,9.9,3,16.4c4.1-4.4,9.1-7,13.2-4.5
		c3.7,2.2,4.9,9.1,4.7,16c3.5-5.1,8.2-9.1,12.5-7.6c7.7,2.8,9.4,21.1,7.8,29.6c-1.5,7.7-4.9,26-19,19.7c-7.1-2.5-8.5-10.1-8.2-17.2
		c-2.8,3.8-7,5.8-13.2,2.8c-7.2-4.6-8.2-13-6.3-21.4c-2.9,2.3-6.5,3.2-10.9,0.2c-6-4.9-6.7-12.7-2.8-21.8
		C206.9,386.2,213.6,380.8,219,380.2z M287.8,400.7C287.8,400.7,287.9,400.7,287.8,400.7C287.9,400.7,287.9,400.7,287.8,400.7
		c0.1,0,0.1,0,0.1,0c0,0,0.1,0,0.1,0c0.1,0,0.2,0,0.3,0c9.1,0,23.9,29.9,24.3,42.6c0.4,12.7-3.2,27.8-18.3,27.8
		c-13.4,1.8-20.1-10.6-21.1-22.9C272.2,436.1,278.9,402,287.8,400.7z M391.7,400.7C391.7,400.7,391.7,400.7,391.7,400.7
		C391.7,400.7,391.7,400.7,391.7,400.7C391.7,400.7,391.8,400.7,391.7,400.7c0.1,0,0.1,0,0.2,0c0,0,0,0,0,0c0,0,0.1,0,0.1,0
		c0,0,0,0,0,0c0.1,0,0.2,0,0.3,0c9.1,0,16.1,35.2,15.1,47.5c-1.1,12.3-7.7,24.6-21.1,22.9c-15.1,0-18.6-15.1-18.3-27.8
		C368.4,430.9,382.5,402,391.7,400.7z"/>
</g>
</svg>
