<?xml version="1.0" encoding="utf-8"?>
<!-- Generator: Adobe Illustrator 23.0.2, SVG Export Plug-In . SVG Version: 6.00 Build 0)  -->
<svg version="1.1"
	 id="svg3068" inkscape:version="0.43" sodipodi:docbase="/home/sjoerd0/Desktop/totaalpc/pictogrammen" sodipodi:docname="discriminatie.svg" sodipodi:version="0.32" xmlns:cc="http://web.resource.org/cc/" xmlns:dc="http://purl.org/dc/elements/1.1/" xmlns:inkscape="http://www.inkscape.org/namespaces/inkscape" xmlns:rdf="http://www.w3.org/1999/02/22-rdf-syntax-ns#" xmlns:sodipodi="http://inkscape.sourceforge.net/DTD/sodipodi-0.dtd" xmlns:svg="http://www.w3.org/2000/svg"
	 xmlns="http://www.w3.org/2000/svg" xmlns:xlink="http://www.w3.org/1999/xlink" x="0px" y="0px" viewBox="0 0 718 714.3"
	 style="enable-background:new 0 0 718 714.3;" xml:space="preserve">
<sodipodi:namedview  bordercolor="#666666" borderopacity="1.0" id="base" inkscape:current-layer="layer10" inkscape:cx="412.68236" inkscape:cy="651.05646" inkscape:pageopacity="0.0" inkscape:pageshadow="2" inkscape:window-height="946" inkscape:window-width="1264" inkscape:window-x="0" inkscape:window-y="0" inkscape:zoom="0.71078191" pagecolor="#ffffff">
	</sodipodi:namedview>
<g id="layer10" inkscape:groupmode="layer" inkscape:label="Vector">
	<path id="path3080" d="M356.7,4C162.8,5.2,5.9,163,5.9,357.1c0,194.9,158.2,353.1,353.2,353.1s353.1-158.2,353.1-353.1
		S553.9,4,359,4C358.3,4,357.5,4,356.7,4z M297,78.2c0.2,0,0.5,0,0.7,0c17.8-0.2,35.7,7,42.6,21.2c15.5,31.6-24.9,105.4-13.9,118.4
		s41,14.2,51.8,27.8c10.9,13.9,13.9,27.9,13.9,27.9s34.8-5,36.8-16.9c2-11.9-29.7-101.9-13.9-130.3c11.6-20.8,74.1-19.4,84.6,15.9
		c9.8,33.1-41.1,102.7-37.3,120.9c3.9,18.8,23.9,15,38.3,33.3c23.9,30.3,19.4,71.6,19.4,71.6s24.5-2.6,26.9-11.4
		c3.5-12.9-23.4-100.5,0.5-121.4c20.7-18.1,59.2-19.4,71.1,6.5S573.1,355.1,579.1,366s33.8,14.4,41.8,34.3
		c8,19.9,10.3,67.1-34.8,127.8c-37.1,49.9-58.9,86.7-143.3,103.1c12.9-43.7,27.1-94.3,29.4-138.9c3.5-67.2-15.2-103.1-32.3-119.9
		c-21.9-21.4-44.2-3.4-53.8-7.9c-8.5-4-16.1-59.7-45.2-94c-4.1-4.8-9.2-6.7-14.8-6.4c-19.8,0.9-44.7,29.2-43.9,48.7
		c1.6,41.7,75.6,60.2,79.1,70.7c1.8,5.3-16.7,16.3-20.4,34.8c-3,14.9,11,29.8,19.9,80.1c6.7,37.8-9.9,97.9-24.7,141.7
		c-125.7-3.7-172.1-70.1-200.6-119.8C104.6,466.5,101.6,419,114,379.5c9.9-31.8,44.1-26.7,42.3-49.2c-1.8-22.3-55.2-93.5-40.3-116.4
		c14.9-22.9,56.1-31.3,74.6-4.5c17.9,25.9-8.7,109.7-2,116.4c6.1,6.1,38.3-3.5,38.3-3.5s-3.2-46.5,8.9-64.7
		c13.9-20.9,52.8-32.8,52.8-41.8s-50.1-92.5-29.3-120.9C267.3,84,282,78.5,297,78.2z M416,540.6c0.1,0,0.3,0,0.4,0
		c12.1,0.4,8.2,43.3,2.4,94.6c-15.1,2-31.8,3.5-50.6,4.4c-3.2,0.2-6.4,0.3-9.5,0.4C386.1,582.6,405.9,541.5,416,540.6z"/>
</g>
</svg>
