<?xml version="1.0" encoding="utf-8"?>
<!-- Generator: Adobe Illustrator 23.0.2, SVG Export Plug-In . SVG Version: 6.00 Build 0)  -->
<svg version="1.1"
	 id="svg2987" inkscape:version="0.43" sodipodi:docbase="/home/sjoerd0/Desktop/totaalpc/pictogrammen" sodipodi:docname="drugs.svg" sodipodi:version="0.32" xmlns:cc="http://web.resource.org/cc/" xmlns:dc="http://purl.org/dc/elements/1.1/" xmlns:inkscape="http://www.inkscape.org/namespaces/inkscape" xmlns:rdf="http://www.w3.org/1999/02/22-rdf-syntax-ns#" xmlns:sodipodi="http://inkscape.sourceforge.net/DTD/sodipodi-0.dtd" xmlns:svg="http://www.w3.org/2000/svg"
	 xmlns="http://www.w3.org/2000/svg" xmlns:xlink="http://www.w3.org/1999/xlink" x="0px" y="0px" viewBox="0 0 715 713.3"
	 style="enable-background:new 0 0 715 713.3;" xml:space="preserve">
<sodipodi:namedview  bordercolor="#666666" borderopacity="1.0" id="base" inkscape:current-layer="layer8" inkscape:cx="434.2275" inkscape:cy="650.01636" inkscape:pageopacity="0.0" inkscape:pageshadow="2" inkscape:window-height="946" inkscape:window-width="1264" inkscape:window-x="0" inkscape:window-y="0" inkscape:zoom="0.50259871" pagecolor="#ffffff">
	</sodipodi:namedview>
<g id="layer8" inkscape:groupmode="layer" inkscape:label="Vector">
	<path id="path2999" d="M353.8,6.4C161,7.6,5,164.4,5,357.4c0,193.8,157.3,351,351,351c193.8,0,351-157.2,351-351S549.8,6.4,356,6.4
		C355.3,6.4,354.5,6.4,353.8,6.4z M454.7,99c0.1,0,0.2,0,0.3,0c0.1,0,0.2,0,0.3,0c16.9-0.5,55.1,19.6,89.5,51.6
		c40.8,38,51.4,56.5,46.1,65.8c-7,12.3-32.7,1.7-64.4-9.2l0.1,0.2c0,0-15.4-7-20.9-6.5c-5.5,0.5-23.4,11-20.9,24.9
		c1.6,9.3,26.9,35.8,38.8,47.2c11.9,11.4,55.7,57.7,46.8,72.1c-9,14.4-49.2-11.9-71.1-21.4c-21.9-9.5-25.4,3-32.3,10.4
		c-7,7.5-108.9,128.3-118.4,139.3c-9.5,10.9-17.4,17.9-32.3,27.8c-14.9,9.9-42.3,2-46.2,2s-15.5,10.4-22.4,10.9
		c-5.5,0.4-14.8,1.5-24.9-1.1L151,573.5l51.9-70.9c-9.2-10-8.6-24.7-2.7-34c7-10.9,7.5-26.4,7.5-44.3s9-31.3,14.9-38.3
		c6-7,112.4-131.8,118.9-138.8s9.9-12.5,10.4-21.4c0.5-9-42.8-66.2-30.3-78.1s105,42.3,121.9,51.2c16.9,9,25.9-2,31.8-9
		s0-15.9-9.7-34.8c-13.7-24.3-25.3-44.3-17.6-53.4C449.4,100.1,451.7,99.2,454.7,99z M363.4,260.6c-6.3,0.2-11,1.4-12,3.5
		c-3,6.5,14.4,13.2,25.4,20.4c13.4,8.7,32.3,20.9,38.8,14.9c4.9-4.5,8.4-13.4-9.5-28.3c-9.5-7.2-28.8-10.7-41.8-10.5
		c-0.2,0-0.4,0-0.6,0C363.6,260.6,363.5,260.6,363.4,260.6z M314.3,317.5c-0.2,0-0.3,0-0.5,0c-9.9,0.2-17.4,2.4-17.6,6.8
		c-0.5,10.4,19.9,10.5,33.8,18.9c13.9,8.5,33.8,24.9,40.3,23.9c6.5-1,15.4-18.9-11.4-38.8c-9.9-7-29.4-10.9-44.1-10.8
		C314.7,317.5,314.5,317.5,314.3,317.5z M268.3,380.4c-9.5,0.3-16.7,3.2-18.3,8.1c-3,8.9,15.4,2.5,30.8,13.9
		c14.3,10.6,26.7,25.3,31.8,18.9c4.8-6,8.9-17.4-8-30.3c-11.2-7.4-24.4-10.6-35-10.6c-0.3,0-0.6,0-0.9,0
		C268.6,380.4,268.5,380.4,268.3,380.4z"/>
</g>
</svg>
