<?xml version="1.0" encoding="utf-8"?>
<!-- Generator: Adobe Illustrator 23.0.2, SVG Export Plug-In . SVG Version: 6.00 Build 0)  -->
<svg version="1.1" id="Laag_1" xmlns="http://www.w3.org/2000/svg" xmlns:xlink="http://www.w3.org/1999/xlink" x="0px" y="0px"
	 viewBox="0 0 884.3 275.9" style="enable-background:new 0 0 884.3 275.9;" xml:space="preserve">
<style type="text/css">
	.st0{fill:#683C11;}
	.st1{opacity:0.25;}
	.st2{fill:#1D71B8;}
	.st3{fill:none;stroke:#FFFFFF;stroke-width:5;stroke-miterlimit:10;}
	.st4{font-family:'Roboto-Bold';}
	.st5{font-size:250px;}
	.st6{fill:#FFFFFF;}
	.st7{font-size:251.5408px;}
	.st8{display:none;fill:#683C11;}
	.st9{font-family:'Roboto-Black';}
	.st10{font-size:49.6439px;}
	.st11{font-size:50px;}
</style>
<g>
	<path class="st0" d="M866,155.3v-24.6H326v5.5h11v12h-11v7.3h115v83.4H326v7.3h10v12h-10v5.5h540v-25.1h-14v-83.4H866z M822,136h21
		v12h-21V136z M799,136h21v12h-21V136z M776,136h21v12h-21V136z M753,136h21v12h-21V136z M730,136h21v12h-21V136z M707,136h21v12
		h-21V136z M709,155.3v83.4H584v-83.4H709z M684,136h21v12h-21V136z M661,136h21v12h-21V136z M638,136h21v12h-21V136z M615,136h21
		v12h-21V136z M592,136h21v12h-21V136z M569,136h21v12h-21V136z M575,155.3v83.4H450v-83.4H575z M546,136h21v12h-21V136z M523,136
		h21v12h-21V136z M500,136h21v12h-21V136z M477,136h21v12h-21V136z M454,136h21v12h-21V136z M360,148h-21v-12h21V148z M383,148h-21
		v-12h21V148z M406,148h-21v-12h21V148z M429,148h-21v-12h21V148z M431,148v-12h21v12H431z M359,258h-21v-12h21V258z M382,258h-21
		v-12h21V258z M405,258h-21v-12h21V258z M428,258h-21v-12h21V258z M451,258h-21v-12h21V258z M474,258h-21v-12h21V258z M497,258h-21
		v-12h21V258z M520,258h-21v-12h21V258z M543,258h-21v-12h21V258z M566,258h-21v-12h21V258z M589,258h-21v-12h21V258z M612,258h-21
		v-12h21V258z M635,258h-21v-12h21V258z M658,258h-21v-12h21V258z M681,258h-21v-12h21V258z M704,258h-21v-12h21V258z M727,258h-21
		v-12h21V258z M750,258h-21v-12h21V258z M773,258h-21v-12h21V258z M796,258h-21v-12h21V258z M819,258h-21v-12h21V258z M842,258h-21
		v-12h21V258z M843,238.7H718v-83.4h125V238.7z M865,246v12h-21v-12H865z M845,148v-12h21v12H845z"/>
	<g class="st1">
		<rect x="326" y="155.6" class="st2" width="115" height="83.4"/>
		<rect x="450" y="155.3" class="st2" width="125" height="83.4"/>
		<rect x="584" y="155.3" class="st2" width="125" height="83.4"/>
		<rect x="718" y="155.3" class="st2" width="125" height="83.4"/>
		<rect x="852" y="155.3" class="st2" width="14" height="83.4"/>
	</g>
</g>
<g>
	
		<image style="overflow:visible;opacity:0.9;enable-background:new    ;" width="979" height="1342" xlink:href="84564F33A0573741.png"  transform="matrix(0.2393 0 0 0.2393 -7.8079 -39.2744)">
	</image>
	<g>
		<text transform="matrix(1.2 0 0 1 6.1465 188.6291)" class="st3 st4 st5">D</text>
	</g>
</g>
<g>
	
		<image style="overflow:visible;opacity:0.9;enable-background:new    ;" width="879" height="1338" xlink:href="84564F33A0573743.png"  transform="matrix(0.2378 0 0 0.2378 224.9921 -39.6266)">
	</image>
	<g>
		<text transform="matrix(1.1057 0 0 1 238.8579 186.8952)" class="st3 st4 st5">S</text>
	</g>
</g>
<g>
	
		<image style="overflow:visible;opacity:0.75;enable-background:new    ;" width="721" height="1325" xlink:href="84564F33A0573746.png"  transform="matrix(0.2377 0 0 0.2377 138.8321 37.4958)">
	</image>
	<g>
		<text transform="matrix(0.9939 0 0 1 150.2705 262.7043)" class="st6 st4 st7">F</text>
	</g>
</g>
<text transform="matrix(0.9939 0 0 1 213.6885 260.0422)" class="st8 st9 st10" style="text-decoration: underline;">ilm</text>
<text transform="matrix(0.9939 0 0 1 398.8667 103.2014)" class="st8 st9 st11" style="text-decoration: underline;">chuur</text>
<text transform="matrix(0.9939 0 0 1 78.7979 149.3093)" class="st8 st9 st11" style="text-decoration: underline;">e</text>
</svg>
